<?xml version="1.0" standalone="no"?>
<!DOCTYPE svg PUBLIC "-//W3C//DTD SVG 20010904//EN"
 "http://www.w3.org/TR/2001/REC-SVG-20010904/DTD/svg10.dtd">
<svg version="1.0" xmlns="http://www.w3.org/2000/svg"
 width="10417.000000pt" height="10417.000000pt" viewBox="0 0 10417.000000 10417.000000"
 preserveAspectRatio="xMidYMid meet">

<g transform="translate(0.000000,10417.000000) scale(0.100000,-0.100000)"
fill="#000000" stroke="none">
<path d="M0 52085 l0 -52085 52085 0 52085 0 0 52085 0 52085 -52085 0 -52085
0 0 -52085z m29360 4720 l0 -8775 -1630 0 -1630 0 0 8775 0 8775 1630 0 1630
0 0 -8775z m2440 8765 c1319 -57 2231 -322 2920 -850 140 -108 408 -381 515
-527 395 -537 616 -1201 695 -2085 41 -459 38 -1414 -6 -1878 -130 -1385 -644
-2333 -1551 -2859 -100 -58 -100 -75 5 -131 190 -102 409 -268 577 -436 553
-553 876 -1360 974 -2434 26 -279 33 -705 28 -1620 -5 -938 -10 -1064 -47
-1405 -107 -968 -418 -1711 -934 -2229 -576 -578 -1431 -920 -2591 -1036 -392
-39 -495 -42 -1447 -47 l-948 -5 0 1466 0 1466 708 0 c919 1 1039 9 1289 92
393 129 603 387 686 843 22 119 22 127 22 1405 0 1178 -1 1294 -18 1396 -85
537 -366 822 -912 926 -105 20 -147 21 -942 25 l-833 4 0 1464 0 1463 793 5
c826 5 879 7 1072 51 411 95 669 329 779 708 60 209 61 222 61 1273 0 873 -2
970 -18 1073 -50 316 -163 538 -354 692 -123 99 -256 162 -445 211 -194 49
-242 52 -1090 56 l-798 5 0 1464 0 1464 788 0 c433 0 893 -5 1022 -10z m11440
-3912 l0 -3921 -1616 -4056 c-889 -2231 -1620 -4063 -1625 -4071 -5 -9 -9
3438 -9 7978 l0 7992 1625 0 1625 0 0 -3922z m6979 3895 c-6 -16 -848 -2129
-1871 -4698 -1023 -2568 -2591 -6503 -3484 -8744 -892 -2240 -1625 -4075
-1627 -4077 -2 -2 -733 -3 -1624 -2 l-1619 3 3495 8773 3495 8772 1623 0 1623
0 -11 -27z m13319 20 c-15 -2 -42 -2 -60 0 -18 2 -6 4 27 4 33 0 48 -2 33 -4z
m7762 -8768 l0 -8775 -1630 0 -1630 0 0 8775 0 8775 1630 0 1630 0 0 -8775z
m2655 8756 c691 -52 1166 -136 1635 -291 1342 -441 2058 -1374 2249 -2930 45
-363 46 -403 46 -1980 0 -1644 0 -1642 -61 -2070 -111 -786 -357 -1413 -744
-1900 -99 -125 -312 -339 -430 -434 -400 -319 -932 -551 -1510 -656 -69 -13
-126 -24 -128 -25 -2 -2 682 -1624 1519 -3606 837 -1982 1524 -3612 1526
-3621 5 -17 -82 -18 -1735 -18 l-1740 0 -11 28 c-6 15 -605 1608 -1331 3540
l-1320 3513 0 1459 0 1459 848 4 c883 5 905 6 1093 50 428 102 660 365 747
847 15 87 17 212 17 1410 0 1198 -2 1323 -17 1410 -93 515 -344 774 -838 864
-155 29 -368 36 -1112 36 l-738 0 0 1466 0 1466 943 -5 c549 -3 1004 -10 1092
-16z m-16505 -2976 c0 -2381 -3 -2985 -12 -2985 -127 -5 -203 -11 -353 -28
-99 -12 -181 -22 -183 -22 -1 0 -22 -18 -45 -40 -46 -42 -83 -60 -123 -60 -44
0 -107 -41 -188 -122 -92 -91 -68 -94 -218 31 -96 79 -98 82 -98 124 0 23 9
62 20 86 11 24 20 50 20 59 0 8 -17 42 -38 76 -85 134 -150 271 -162 335 -16
89 -54 179 -113 269 -59 92 -182 218 -221 228 -33 8 -78 -11 -127 -54 l-34
-30 -75 21 c-112 30 -364 30 -516 -1 -246 -49 -438 -134 -544 -242 -75 -75
-138 -191 -166 -305 -11 -45 -29 -86 -51 -114 l-33 -44 0 2902 0 2901 1630 0
1630 0 0 -2985z m5888 2961 c-112 -54 -179 -141 -228 -293 -74 -231 -79 -453
-24 -1148 28 -355 -2 -547 -125 -785 -223 -434 -618 -1399 -735 -1795 -23 -79
-42 -175 -56 -281 -38 -312 -107 -598 -175 -734 -46 -91 -135 -221 -387 -565
-300 -410 -486 -686 -591 -876 l-37 -66 -267 -141 c-320 -168 -615 -312 -699
-341 -52 -17 -70 -19 -120 -11 -33 6 -126 14 -209 20 -205 12 -236 23 -327
113 -40 39 -114 100 -164 134 -73 50 -94 70 -109 105 -10 24 -28 56 -38 71
-11 16 -26 49 -33 75 -20 65 -58 116 -139 185 -58 50 -74 72 -100 132 -39 89
-106 191 -178 271 l-55 60 1146 2947 1146 2947 1275 0 1276 -1 -47 -23z m850
12 c-80 -222 -325 -855 -329 -852 -8 5 -15 63 -34 289 -30 343 -79 489 -190
556 -30 19 -27 19 264 19 230 0 292 -3 289 -12z m-13958 -9538 l0 -7990 -1625
0 -1625 0 0 3932 0 3931 1622 4059 c892 2232 1624 4058 1625 4058 2 0 3 -3595
3 -7990z m3960 3623 c0 -82 -3 -104 -12 -95 -17 17 -22 124 -8 166 6 20 13 36
16 36 2 0 4 -48 4 -107z m-3 -220 c-3 -10 -5 -4 -5 12 0 17 2 24 5 18 2 -7 2
-21 0 -30z m89 -343 c73 -174 135 -270 243 -379 91 -91 278 -329 371 -471 69
-107 148 -279 201 -442 l51 -153 -16 -115 c-9 -63 -16 -152 -16 -198 0 -149
-84 -684 -160 -1022 -35 -151 -49 -193 -85 -245 -25 -37 -27 -46 -23 -115 6
-110 53 -194 183 -329 97 -101 284 -251 381 -307 27 -15 84 -52 127 -81 42
-29 94 -59 115 -66 31 -10 41 -21 65 -70 18 -39 35 -61 54 -68 41 -15 90 -62
188 -178 142 -166 278 -267 404 -301 24 -6 94 -42 155 -79 321 -193 631 -254
872 -171 31 11 59 20 61 20 1 0 3 -1413 3 -3140 l0 -3140 -1630 0 -1630 0 1
5653 0 5652 20 -75 c11 -41 40 -122 65 -180z m5494 -3851 c36 -6 75 -17 87
-25 31 -20 146 -196 192 -295 21 -46 53 -129 71 -184 l33 -100 -4 -185 c-10
-452 3 -802 36 -1009 13 -76 12 -94 -5 -191 -18 -96 -51 -232 -109 -446 -43
-158 -59 -576 -42 -1089 35 -1058 46 -1452 37 -1444 -3 3 -398 1038 -877 2300
-1079 2844 -1013 2668 -1008 2673 6 5 704 -51 798 -65 120 -17 230 -7 341 32
51 17 115 35 144 40 59 9 213 3 306 -12z m3407 -3769 c668 -1845 1221 -3372
1229 -3392 l13 -38 -1716 0 -1717 0 47 29 c100 64 132 170 84 275 -14 30 -39
73 -56 93 -39 49 -115 213 -131 282 -9 37 -10 78 -4 130 13 122 8 167 -23 230
l-28 56 0 455 c1 494 12 675 60 935 31 166 55 244 115 375 108 234 150 495
171 1055 8 211 9 390 3 559 l-9 248 103 267 c275 713 533 1473 617 1816 l7 30
10 -25 c5 -14 556 -1535 1225 -3380z"/>
</g>
</svg>
